<svg width="256" height="186" viewBox="0 0 256 186" fill="none" xmlns="http://www.w3.org/2000/svg">
<path d="M61.5531 90.56C62.8331 90.56 64.1265 90.68 65.4331 90.92C66.7398 91.16 67.7798 91.5067 68.5531 91.96C68.7931 92.0667 68.9398 92.1867 68.9931 92.32C69.0731 92.4267 69.1265 92.6267 69.1531 92.92L69.5931 97.4C69.5931 97.48 69.5265 97.5333 69.3931 97.56C69.2598 97.56 69.1798 97.52 69.1531 97.44C68.5665 95.3867 67.4731 93.88 65.8731 92.92C64.2998 91.9333 62.3398 91.44 59.9931 91.44C57.9665 91.44 56.1931 91.8933 54.6731 92.8C53.1531 93.68 51.9798 94.9333 51.1531 96.56C50.3265 98.1867 49.9131 100.067 49.9131 102.2C49.9131 104.68 50.4198 106.973 51.4331 109.08C52.4731 111.187 53.8598 112.853 55.5931 114.08C57.3531 115.307 59.2465 115.92 61.2731 115.92C63.1931 115.92 64.8598 115.4 66.2731 114.36C67.6865 113.293 68.7665 111.667 69.5131 109.48C69.5131 109.4 69.5665 109.36 69.6731 109.36C69.7531 109.36 69.8198 109.373 69.8731 109.4C69.9531 109.427 69.9931 109.467 69.9931 109.52L69.4331 114.04C69.3798 114.36 69.3131 114.573 69.2331 114.68C69.1798 114.76 69.0331 114.853 68.7931 114.96C66.3931 115.973 63.8598 116.48 61.1931 116.48C57.9931 116.48 55.3131 115.84 53.1531 114.56C51.0198 113.253 49.4465 111.6 48.4331 109.6C47.4198 107.6 46.9131 105.493 46.9131 103.28C46.9131 100.827 47.5931 98.6267 48.9531 96.68C50.3131 94.7333 52.1131 93.2267 54.3531 92.16C56.5931 91.0933 58.9931 90.56 61.5531 90.56ZM79.1109 112.6C79.1109 113.373 79.1909 113.933 79.3509 114.28C79.5109 114.627 79.8043 114.867 80.2309 115C80.6576 115.107 81.3509 115.16 82.3109 115.16H86.6709C88.1909 115.16 89.4043 114.693 90.3109 113.76C91.2176 112.827 91.8176 111.533 92.1109 109.88C92.1109 109.8 92.1776 109.773 92.3109 109.8C92.4709 109.8 92.5509 109.84 92.5509 109.92C92.3109 112.133 92.1909 113.96 92.1909 115.4C92.1909 115.613 92.1509 115.773 92.0709 115.88C91.9909 115.96 91.8309 116 91.5909 116H73.1109C73.0576 116 73.0309 115.92 73.0309 115.76C73.0309 115.6 73.0576 115.52 73.1109 115.52C74.1243 115.52 74.8576 115.453 75.3109 115.32C75.7909 115.187 76.1109 114.933 76.2709 114.56C76.4309 114.16 76.5109 113.56 76.5109 112.76V94.24C76.5109 93.44 76.4309 92.8533 76.2709 92.48C76.1109 92.1067 75.7909 91.8533 75.3109 91.72C74.8576 91.56 74.1243 91.48 73.1109 91.48C73.0576 91.48 73.0309 91.4 73.0309 91.24C73.0309 91.08 73.0576 91 73.1109 91L75.0709 91.04C76.1909 91.0933 77.0976 91.12 77.7909 91.12C78.5376 91.12 79.4709 91.0933 80.5909 91.04L82.5109 91C82.5909 91 82.6309 91.08 82.6309 91.24C82.6309 91.4 82.5909 91.48 82.5109 91.48C81.5243 91.48 80.7909 91.56 80.3109 91.72C79.8576 91.8533 79.5376 92.12 79.3509 92.52C79.1909 92.8933 79.1109 93.48 79.1109 94.28V112.6ZM120.999 115.52C121.106 115.52 121.159 115.6 121.159 115.76C121.159 115.92 121.106 116 120.999 116C120.492 116 119.706 115.973 118.639 115.92C117.572 115.867 116.799 115.84 116.319 115.84C115.732 115.84 114.986 115.867 114.079 115.92C113.226 115.973 112.572 116 112.119 116C112.012 116 111.959 115.92 111.959 115.76C111.959 115.6 112.012 115.52 112.119 115.52C113.106 115.52 113.826 115.427 114.279 115.24C114.732 115.053 114.959 114.733 114.959 114.28C114.959 113.907 114.786 113.333 114.439 112.56L109.839 102.76H102.279L98.8391 110.92C98.4657 111.827 98.2791 112.573 98.2791 113.16C98.2791 114.733 99.5857 115.52 102.199 115.52C102.332 115.52 102.399 115.6 102.399 115.76C102.399 115.92 102.332 116 102.199 116C101.719 116 101.026 115.973 100.119 115.92C99.1057 115.867 98.2257 115.84 97.4791 115.84C96.7857 115.84 95.9857 115.867 95.0791 115.92C94.2791 115.973 93.6124 116 93.0791 116C92.9457 116 92.8791 115.92 92.8791 115.76C92.8791 115.6 92.9457 115.52 93.0791 115.52C93.8257 115.52 94.4524 115.387 94.9591 115.12C95.4924 114.827 95.9857 114.333 96.4391 113.64C96.9191 112.92 97.4391 111.893 97.9991 110.56L106.439 90.64C106.492 90.56 106.586 90.52 106.719 90.52C106.852 90.52 106.932 90.56 106.959 90.64L116.399 110.52C117.306 112.493 118.079 113.827 118.719 114.52C119.359 115.187 120.119 115.52 120.999 115.52ZM102.639 101.92H109.439L105.839 94.32L102.639 101.92ZM148.445 115.52C148.498 115.52 148.525 115.6 148.525 115.76C148.525 115.92 148.498 116 148.445 116H143.285C142.618 116 141.365 114.867 139.525 112.6C137.712 110.307 135.498 107.12 132.885 103.04C132.245 103.227 131.525 103.32 130.725 103.32C130.218 103.32 129.618 103.293 128.925 103.24V112.76C128.925 113.587 129.005 114.187 129.165 114.56C129.325 114.933 129.632 115.187 130.085 115.32C130.565 115.453 131.312 115.52 132.325 115.52C132.405 115.52 132.445 115.6 132.445 115.76C132.445 115.92 132.405 116 132.325 116C131.498 116 130.845 115.987 130.365 115.96L127.605 115.92L124.885 115.96C124.405 115.987 123.725 116 122.845 116C122.792 116 122.765 115.92 122.765 115.76C122.765 115.6 122.792 115.52 122.845 115.52C123.858 115.52 124.605 115.453 125.085 115.32C125.565 115.16 125.898 114.893 126.085 114.52C126.272 114.147 126.365 113.56 126.365 112.76V94.24C126.365 93.44 126.272 92.8533 126.085 92.48C125.925 92.1067 125.605 91.8533 125.125 91.72C124.672 91.56 123.938 91.48 122.925 91.48C122.845 91.48 122.805 91.4 122.805 91.24C122.805 91.08 122.845 91 122.925 91L124.885 91.04C126.005 91.0933 126.912 91.12 127.605 91.12C128.085 91.12 128.538 91.1067 128.965 91.08C129.392 91.0533 129.765 91.0267 130.085 91C130.938 90.92 131.712 90.88 132.405 90.88C134.565 90.88 136.232 91.32 137.405 92.2C138.578 93.08 139.165 94.3067 139.165 95.88C139.165 97.16 138.792 98.3733 138.045 99.52C137.298 100.64 136.312 101.533 135.085 102.2C137.352 105.587 139.258 108.24 140.805 110.16C142.352 112.053 143.725 113.427 144.925 114.28C146.125 115.107 147.298 115.52 148.445 115.52ZM128.925 102.24C129.592 102.347 130.378 102.4 131.285 102.4C133.125 102.4 134.445 102.013 135.245 101.24C136.045 100.44 136.445 99.12 136.445 97.28C136.445 93.4133 134.818 91.48 131.565 91.48C130.845 91.48 130.298 91.5467 129.925 91.68C129.578 91.7867 129.325 92.04 129.165 92.44C129.005 92.8133 128.925 93.44 128.925 94.32V102.24ZM155.999 112.76C155.999 113.56 156.079 114.16 156.239 114.56C156.399 114.933 156.706 115.187 157.159 115.32C157.639 115.453 158.386 115.52 159.399 115.52C159.479 115.52 159.519 115.6 159.519 115.76C159.519 115.92 159.479 116 159.399 116C158.599 116 157.959 115.987 157.479 115.96L154.639 115.92L151.879 115.96C151.399 115.987 150.746 116 149.919 116C149.839 116 149.799 115.92 149.799 115.76C149.799 115.6 149.839 115.52 149.919 115.52C150.932 115.52 151.666 115.453 152.119 115.32C152.599 115.187 152.919 114.933 153.079 114.56C153.266 114.16 153.359 113.56 153.359 112.76V94.24C153.359 93.44 153.266 92.8533 153.079 92.48C152.919 92.1067 152.599 91.8533 152.119 91.72C151.666 91.56 150.932 91.48 149.919 91.48C149.839 91.48 149.799 91.4 149.799 91.24C149.799 91.08 149.839 91 149.919 91L151.879 91.04C152.999 91.0933 153.919 91.12 154.639 91.12C155.439 91.12 156.399 91.0933 157.519 91.04L159.399 91C159.479 91 159.519 91.08 159.519 91.24C159.519 91.4 159.479 91.48 159.399 91.48C158.412 91.48 157.679 91.56 157.199 91.72C156.746 91.88 156.426 92.16 156.239 92.56C156.079 92.9333 155.999 93.52 155.999 94.32V112.76ZM168.88 91.72C167.2 91.72 165.934 92.1467 165.08 93C164.254 93.8533 163.654 95.3067 163.28 97.36C163.28 97.4133 163.2 97.44 163.04 97.44C162.907 97.44 162.84 97.4133 162.84 97.36C162.947 96.4 163.067 95.1467 163.2 93.6C163.334 92.0533 163.4 90.8933 163.4 90.12C163.4 89.9867 163.467 89.92 163.6 89.92C163.76 89.92 163.84 89.9867 163.84 90.12C163.84 90.7067 164.56 91 166 91C168.267 91.08 170.947 91.12 174.04 91.12C175.614 91.12 177.28 91.0933 179.04 91.04L181.76 91C182.72 91 183.427 90.9333 183.88 90.8C184.36 90.6667 184.667 90.4 184.8 90C184.827 89.8933 184.907 89.84 185.04 89.84C185.174 89.84 185.24 89.8933 185.24 90C185.16 90.7733 185.08 91.9467 185 93.52C184.92 95.0933 184.88 96.3733 184.88 97.36C184.88 97.4133 184.8 97.44 184.64 97.44C184.48 97.44 184.4 97.4133 184.4 97.36C184.32 95.28 183.894 93.8267 183.12 93C182.347 92.1467 181.067 91.72 179.28 91.72C178.08 91.72 177.227 91.7733 176.72 91.88C176.214 91.9867 175.867 92.2133 175.68 92.56C175.494 92.9067 175.4 93.4933 175.4 94.32V112.76C175.4 113.587 175.494 114.187 175.68 114.56C175.867 114.933 176.227 115.187 176.76 115.32C177.294 115.453 178.134 115.52 179.28 115.52C179.36 115.52 179.4 115.6 179.4 115.76C179.4 115.92 179.36 116 179.28 116C178.4 116 177.694 115.987 177.16 115.96L174.04 115.92L171.04 115.96C170.507 115.987 169.774 116 168.84 116C168.787 116 168.76 115.92 168.76 115.76C168.76 115.6 168.787 115.52 168.84 115.52C169.987 115.52 170.827 115.453 171.36 115.32C171.894 115.187 172.254 114.933 172.44 114.56C172.654 114.16 172.76 113.56 172.76 112.76V94.24C172.76 93.4133 172.667 92.84 172.48 92.52C172.294 92.1733 171.947 91.96 171.44 91.88C170.934 91.7733 170.08 91.72 168.88 91.72ZM211.232 91C211.285 91 211.312 91.08 211.312 91.24C211.312 91.4 211.285 91.48 211.232 91.48C210.272 91.48 209.299 91.84 208.312 92.56C207.325 93.2533 206.445 94.2133 205.672 95.44L200.312 103.68V112.76C200.312 113.587 200.392 114.187 200.552 114.56C200.712 114.933 201.019 115.187 201.472 115.32C201.952 115.453 202.699 115.52 203.712 115.52C203.792 115.52 203.832 115.6 203.832 115.76C203.832 115.92 203.792 116 203.712 116C202.885 116 202.245 115.987 201.792 115.96L198.992 115.92L196.232 115.96C195.752 115.987 195.099 116 194.272 116C194.192 116 194.152 115.92 194.152 115.76C194.152 115.6 194.192 115.52 194.272 115.52C195.285 115.52 196.019 115.453 196.472 115.32C196.952 115.187 197.272 114.933 197.432 114.56C197.619 114.16 197.712 113.56 197.712 112.76V104.32L191.072 94.6C190.325 93.4267 189.619 92.6133 188.952 92.16C188.285 91.7067 187.512 91.48 186.632 91.48C186.552 91.48 186.512 91.4 186.512 91.24C186.512 91.08 186.552 91 186.632 91C186.952 91 187.432 91.0267 188.072 91.08L189.472 91.12C190.379 91.12 191.525 91.0933 192.912 91.04L195.072 91C195.125 91 195.152 91.08 195.152 91.24C195.152 91.4 195.125 91.48 195.072 91.48C193.685 91.48 192.992 91.76 192.992 92.32C192.992 92.6133 193.125 92.9467 193.392 93.32L199.832 102.76L204.712 95.28C205.299 94.3467 205.592 93.56 205.592 92.92C205.592 91.96 204.872 91.48 203.432 91.48C203.379 91.48 203.352 91.4 203.352 91.24C203.352 91.08 203.379 91 203.432 91L205.312 91.04C206.325 91.0933 207.259 91.12 208.112 91.12C208.565 91.12 209.112 91.0933 209.752 91.04L211.232 91Z" fill="rgb(100, 100, 100)"/>
<path d="M60.5846 135.736C60.6139 135.736 60.6286 135.78 60.6286 135.868C60.6286 135.956 60.6139 136 60.5846 136H57.7466C57.3799 136 56.6906 135.377 55.6786 134.13C54.6813 132.869 53.4639 131.116 52.0266 128.872C51.6746 128.975 51.2786 129.026 50.8386 129.026C50.5599 129.026 50.2299 129.011 49.8486 128.982V134.218C49.8486 134.673 49.8926 135.003 49.9806 135.208C50.0686 135.413 50.2373 135.553 50.4866 135.626C50.7506 135.699 51.1613 135.736 51.7186 135.736C51.7626 135.736 51.7846 135.78 51.7846 135.868C51.7846 135.956 51.7626 136 51.7186 136C51.2639 136 50.9046 135.993 50.6406 135.978L49.1226 135.956L47.6266 135.978C47.3626 135.993 46.9886 136 46.5046 136C46.4753 136 46.4606 135.956 46.4606 135.868C46.4606 135.78 46.4753 135.736 46.5046 135.736C47.0619 135.736 47.4726 135.699 47.7366 135.626C48.0006 135.538 48.1839 135.391 48.2866 135.186C48.3893 134.981 48.4406 134.658 48.4406 134.218V124.032C48.4406 123.592 48.3893 123.269 48.2866 123.064C48.1986 122.859 48.0226 122.719 47.7586 122.646C47.5093 122.558 47.1059 122.514 46.5486 122.514C46.5046 122.514 46.4826 122.47 46.4826 122.382C46.4826 122.294 46.5046 122.25 46.5486 122.25L47.6266 122.272C48.2426 122.301 48.7413 122.316 49.1226 122.316C49.3866 122.316 49.6359 122.309 49.8706 122.294C50.1053 122.279 50.3106 122.265 50.4866 122.25C50.9559 122.206 51.3813 122.184 51.7626 122.184C52.9506 122.184 53.8673 122.426 54.5126 122.91C55.1579 123.394 55.4806 124.069 55.4806 124.934C55.4806 125.638 55.2753 126.305 54.8646 126.936C54.4539 127.552 53.9113 128.043 53.2366 128.41C54.4833 130.273 55.5319 131.732 56.3826 132.788C57.2333 133.829 57.9886 134.585 58.6486 135.054C59.3086 135.509 59.9539 135.736 60.5846 135.736ZM49.8486 128.432C50.2153 128.491 50.6479 128.52 51.1466 128.52C52.1586 128.52 52.8846 128.307 53.3246 127.882C53.7646 127.442 53.9846 126.716 53.9846 125.704C53.9846 123.577 53.0899 122.514 51.3006 122.514C50.9046 122.514 50.6039 122.551 50.3986 122.624C50.2079 122.683 50.0686 122.822 49.9806 123.042C49.8926 123.247 49.8486 123.592 49.8486 124.076V128.432ZM70.8113 132.722C70.8113 132.693 70.8407 132.678 70.8993 132.678C70.9433 132.678 70.98 132.685 71.0093 132.7C71.0533 132.715 71.0753 132.737 71.0753 132.766C70.9433 133.69 70.8773 134.658 70.8773 135.67C70.8773 135.787 70.848 135.875 70.7893 135.934C70.7453 135.978 70.6573 136 70.5253 136H61.3073C61.278 136 61.2633 135.956 61.2633 135.868C61.2633 135.78 61.278 135.736 61.3073 135.736C61.8647 135.736 62.268 135.699 62.5173 135.626C62.7813 135.553 62.9573 135.413 63.0453 135.208C63.148 134.988 63.1993 134.658 63.1993 134.218V124.032C63.1993 123.592 63.148 123.269 63.0453 123.064C62.9573 122.859 62.7813 122.719 62.5173 122.646C62.268 122.558 61.8647 122.514 61.3073 122.514C61.278 122.514 61.2633 122.47 61.2633 122.382C61.2633 122.294 61.278 122.25 61.3073 122.25H70.1513C70.2833 122.25 70.3493 122.316 70.3493 122.448L70.3933 125.154C70.3933 125.198 70.3567 125.227 70.2833 125.242C70.21 125.242 70.166 125.22 70.1513 125.176C70.1073 124.399 69.8727 123.797 69.4473 123.372C69.022 122.932 68.4573 122.712 67.7533 122.712H66.4113C65.898 122.712 65.5167 122.756 65.2673 122.844C65.0327 122.917 64.864 123.057 64.7613 123.262C64.6733 123.453 64.6293 123.746 64.6293 124.142V128.608H67.3133C68.0173 128.608 68.516 128.491 68.8093 128.256C69.1173 128.021 69.2713 127.625 69.2713 127.068C69.2713 127.039 69.3153 127.024 69.4033 127.024C69.4913 127.024 69.5353 127.039 69.5353 127.068L69.5133 128.85C69.5133 129.275 69.5207 129.598 69.5353 129.818L69.5573 130.874C69.5573 130.903 69.5133 130.918 69.4253 130.918C69.3373 130.918 69.2933 130.903 69.2933 130.874C69.2933 130.229 69.132 129.767 68.8093 129.488C68.5013 129.209 67.9807 129.07 67.2473 129.07H64.6293V134.13C64.6293 134.541 64.6733 134.841 64.7613 135.032C64.8493 135.223 65.0107 135.355 65.2453 135.428C65.48 135.501 65.8467 135.538 66.3453 135.538H68.1053C68.8093 135.538 69.396 135.289 69.8653 134.79C70.3347 134.291 70.65 133.602 70.8113 132.722ZM76.2477 134.13C76.2477 134.555 76.2917 134.863 76.3797 135.054C76.4677 135.245 76.6291 135.377 76.8637 135.45C77.0984 135.509 77.4797 135.538 78.0077 135.538H80.4057C81.2417 135.538 81.9091 135.281 82.4077 134.768C82.9064 134.255 83.2364 133.543 83.3977 132.634C83.3977 132.59 83.4344 132.575 83.5077 132.59C83.5957 132.59 83.6397 132.612 83.6397 132.656C83.5077 133.873 83.4417 134.878 83.4417 135.67C83.4417 135.787 83.4197 135.875 83.3757 135.934C83.3317 135.978 83.2437 136 83.1117 136H72.9477C72.9184 136 72.9037 135.956 72.9037 135.868C72.9037 135.78 72.9184 135.736 72.9477 135.736C73.5051 135.736 73.9084 135.699 74.1577 135.626C74.4217 135.553 74.5977 135.413 74.6857 135.208C74.7737 134.988 74.8177 134.658 74.8177 134.218V124.032C74.8177 123.592 74.7737 123.269 74.6857 123.064C74.5977 122.859 74.4217 122.719 74.1577 122.646C73.9084 122.558 73.5051 122.514 72.9477 122.514C72.9184 122.514 72.9037 122.47 72.9037 122.382C72.9037 122.294 72.9184 122.25 72.9477 122.25L74.0257 122.272C74.6417 122.301 75.1404 122.316 75.5217 122.316C75.9324 122.316 76.4457 122.301 77.0617 122.272L78.1177 122.25C78.1617 122.25 78.1837 122.294 78.1837 122.382C78.1837 122.47 78.1617 122.514 78.1177 122.514C77.5751 122.514 77.1717 122.558 76.9077 122.646C76.6584 122.719 76.4824 122.866 76.3797 123.086C76.2917 123.291 76.2477 123.614 76.2477 124.054V134.13ZM99.2862 135.736C99.3449 135.736 99.3742 135.78 99.3742 135.868C99.3742 135.956 99.3449 136 99.2862 136C99.0075 136 98.5749 135.985 97.9882 135.956C97.4015 135.927 96.9762 135.912 96.7122 135.912C96.3895 135.912 95.9789 135.927 95.4802 135.956C95.0109 135.985 94.6515 136 94.4022 136C94.3435 136 94.3142 135.956 94.3142 135.868C94.3142 135.78 94.3435 135.736 94.4022 135.736C94.9449 135.736 95.3409 135.685 95.5902 135.582C95.8395 135.479 95.9642 135.303 95.9642 135.054C95.9642 134.849 95.8689 134.533 95.6782 134.108L93.1482 128.718H88.9902L87.0982 133.206C86.8929 133.705 86.7902 134.115 86.7902 134.438C86.7902 135.303 87.5089 135.736 88.9462 135.736C89.0195 135.736 89.0562 135.78 89.0562 135.868C89.0562 135.956 89.0195 136 88.9462 136C88.6822 136 88.3009 135.985 87.8022 135.956C87.2449 135.927 86.7609 135.912 86.3502 135.912C85.9689 135.912 85.5289 135.927 85.0302 135.956C84.5902 135.985 84.2235 136 83.9302 136C83.8569 136 83.8202 135.956 83.8202 135.868C83.8202 135.78 83.8569 135.736 83.9302 135.736C84.3409 135.736 84.6855 135.663 84.9642 135.516C85.2575 135.355 85.5289 135.083 85.7782 134.702C86.0422 134.306 86.3282 133.741 86.6362 133.008L91.2782 122.052C91.3075 122.008 91.3589 121.986 91.4322 121.986C91.5055 121.986 91.5495 122.008 91.5642 122.052L96.7562 132.986C97.2549 134.071 97.6802 134.805 98.0322 135.186C98.3842 135.553 98.8022 135.736 99.2862 135.736ZM89.1882 128.256H92.9282L90.9482 124.076L89.1882 128.256ZM101.967 122.646C101.043 122.646 100.346 122.881 99.8766 123.35C99.4219 123.819 99.0919 124.619 98.8866 125.748C98.8866 125.777 98.8426 125.792 98.7546 125.792C98.6813 125.792 98.6446 125.777 98.6446 125.748C98.7033 125.22 98.7693 124.531 98.8426 123.68C98.9159 122.829 98.9526 122.191 98.9526 121.766C98.9526 121.693 98.9893 121.656 99.0626 121.656C99.1506 121.656 99.1946 121.693 99.1946 121.766C99.1946 122.089 99.5906 122.25 100.383 122.25C101.629 122.294 103.103 122.316 104.805 122.316C105.67 122.316 106.587 122.301 107.555 122.272L109.051 122.25C109.579 122.25 109.967 122.213 110.217 122.14C110.481 122.067 110.649 121.92 110.723 121.7C110.737 121.641 110.781 121.612 110.855 121.612C110.928 121.612 110.965 121.641 110.965 121.7C110.921 122.125 110.877 122.771 110.833 123.636C110.789 124.501 110.767 125.205 110.767 125.748C110.767 125.777 110.723 125.792 110.635 125.792C110.547 125.792 110.503 125.777 110.503 125.748C110.459 124.604 110.224 123.805 109.799 123.35C109.373 122.881 108.669 122.646 107.687 122.646C107.027 122.646 106.557 122.675 106.279 122.734C106 122.793 105.809 122.917 105.707 123.108C105.604 123.299 105.553 123.621 105.553 124.076V134.218C105.553 134.673 105.604 135.003 105.707 135.208C105.809 135.413 106.007 135.553 106.301 135.626C106.594 135.699 107.056 135.736 107.687 135.736C107.731 135.736 107.753 135.78 107.753 135.868C107.753 135.956 107.731 136 107.687 136C107.203 136 106.814 135.993 106.521 135.978L104.805 135.956L103.155 135.978C102.861 135.993 102.458 136 101.945 136C101.915 136 101.901 135.956 101.901 135.868C101.901 135.78 101.915 135.736 101.945 135.736C102.575 135.736 103.037 135.699 103.331 135.626C103.624 135.553 103.822 135.413 103.925 135.208C104.042 134.988 104.101 134.658 104.101 134.218V124.032C104.101 123.577 104.049 123.262 103.947 123.086C103.844 122.895 103.653 122.778 103.375 122.734C103.096 122.675 102.627 122.646 101.967 122.646ZM116.13 134.218C116.13 134.658 116.174 134.988 116.262 135.208C116.35 135.413 116.519 135.553 116.768 135.626C117.032 135.699 117.443 135.736 118 135.736C118.044 135.736 118.066 135.78 118.066 135.868C118.066 135.956 118.044 136 118 136C117.56 136 117.208 135.993 116.944 135.978L115.382 135.956L113.864 135.978C113.6 135.993 113.241 136 112.786 136C112.742 136 112.72 135.956 112.72 135.868C112.72 135.78 112.742 135.736 112.786 135.736C113.343 135.736 113.747 135.699 113.996 135.626C114.26 135.553 114.436 135.413 114.524 135.208C114.627 134.988 114.678 134.658 114.678 134.218V124.032C114.678 123.592 114.627 123.269 114.524 123.064C114.436 122.859 114.26 122.719 113.996 122.646C113.747 122.558 113.343 122.514 112.786 122.514C112.742 122.514 112.72 122.47 112.72 122.382C112.72 122.294 112.742 122.25 112.786 122.25L113.864 122.272C114.48 122.301 114.986 122.316 115.382 122.316C115.822 122.316 116.35 122.301 116.966 122.272L118 122.25C118.044 122.25 118.066 122.294 118.066 122.382C118.066 122.47 118.044 122.514 118 122.514C117.457 122.514 117.054 122.558 116.79 122.646C116.541 122.734 116.365 122.888 116.262 123.108C116.174 123.313 116.13 123.636 116.13 124.076V134.218ZM127.109 136.264C125.745 136.264 124.527 135.949 123.457 135.318C122.401 134.673 121.579 133.807 120.993 132.722C120.421 131.622 120.135 130.427 120.135 129.136C120.135 127.625 120.516 126.335 121.279 125.264C122.041 124.179 123.017 123.365 124.205 122.822C125.407 122.279 126.632 122.008 127.879 122.008C129.272 122.008 130.497 122.338 131.553 122.998C132.609 123.643 133.415 124.501 133.973 125.572C134.545 126.643 134.831 127.779 134.831 128.982C134.831 130.317 134.479 131.541 133.775 132.656C133.071 133.771 132.125 134.651 130.937 135.296C129.763 135.941 128.487 136.264 127.109 136.264ZM127.879 135.802C128.876 135.802 129.771 135.56 130.563 135.076C131.369 134.592 132 133.881 132.455 132.942C132.924 132.003 133.159 130.889 133.159 129.598C133.159 128.219 132.902 126.995 132.389 125.924C131.875 124.853 131.149 124.017 130.211 123.416C129.287 122.815 128.201 122.514 126.955 122.514C125.341 122.514 124.08 123.035 123.171 124.076C122.261 125.117 121.807 126.547 121.807 128.366C121.807 129.745 122.063 131.006 122.577 132.15C123.09 133.279 123.809 134.174 124.733 134.834C125.657 135.479 126.705 135.802 127.879 135.802ZM151.388 122.25C151.432 122.25 151.454 122.294 151.454 122.382C151.454 122.47 151.432 122.514 151.388 122.514C150.772 122.514 150.325 122.683 150.046 123.02C149.768 123.357 149.628 123.907 149.628 124.67V136.264C149.628 136.293 149.592 136.315 149.518 136.33C149.445 136.345 149.394 136.337 149.364 136.308L139.244 124.054L139.046 123.834V133.602C139.046 134.365 139.178 134.915 139.442 135.252C139.721 135.575 140.161 135.736 140.762 135.736C140.806 135.736 140.828 135.78 140.828 135.868C140.828 135.956 140.806 136 140.762 136C140.396 136 140.117 135.993 139.926 135.978L138.826 135.956L137.704 135.978C137.499 135.993 137.198 136 136.802 136C136.773 136 136.758 135.956 136.758 135.868C136.758 135.78 136.773 135.736 136.802 135.736C137.433 135.736 137.88 135.575 138.144 135.252C138.408 134.915 138.54 134.365 138.54 133.602V123.306C137.968 122.778 137.389 122.514 136.802 122.514C136.758 122.514 136.736 122.47 136.736 122.382C136.736 122.294 136.758 122.25 136.802 122.25L137.616 122.272C137.792 122.287 138.034 122.294 138.342 122.294C138.665 122.294 138.929 122.287 139.134 122.272C139.34 122.257 139.501 122.25 139.618 122.25C139.736 122.25 139.816 122.279 139.86 122.338C139.919 122.382 140.007 122.492 140.124 122.668C140.3 122.932 140.476 123.174 140.652 123.394L149.122 133.8V124.67C149.122 123.907 148.99 123.357 148.726 123.02C148.477 122.683 148.052 122.514 147.45 122.514C147.421 122.514 147.406 122.47 147.406 122.382C147.406 122.294 147.421 122.25 147.45 122.25L148.308 122.272C148.748 122.301 149.108 122.316 149.386 122.316C149.65 122.316 150.017 122.301 150.486 122.272L151.388 122.25ZM155.075 124.824C155.075 125.396 155.214 125.895 155.493 126.32C155.771 126.745 156.109 127.105 156.505 127.398C156.901 127.677 157.458 128.036 158.177 128.476C158.939 128.931 159.533 129.312 159.959 129.62C160.384 129.928 160.743 130.324 161.037 130.808C161.345 131.277 161.499 131.842 161.499 132.502C161.499 133.206 161.323 133.844 160.971 134.416C160.619 134.988 160.098 135.443 159.409 135.78C158.734 136.103 157.92 136.264 156.967 136.264C155.837 136.264 154.803 136.007 153.865 135.494C153.791 135.45 153.74 135.399 153.711 135.34C153.696 135.281 153.681 135.193 153.667 135.076L153.381 132.084C153.366 132.025 153.395 131.989 153.469 131.974C153.557 131.959 153.608 131.981 153.623 132.04C153.857 133.096 154.29 134.005 154.921 134.768C155.566 135.531 156.417 135.912 157.473 135.912C158.206 135.912 158.822 135.714 159.321 135.318C159.834 134.907 160.091 134.262 160.091 133.382C160.091 132.722 159.944 132.15 159.651 131.666C159.357 131.182 158.998 130.786 158.573 130.478C158.162 130.155 157.597 129.781 156.879 129.356C156.175 128.931 155.617 128.564 155.207 128.256C154.811 127.948 154.473 127.559 154.195 127.09C153.916 126.621 153.777 126.071 153.777 125.44C153.777 124.707 153.967 124.083 154.349 123.57C154.745 123.042 155.251 122.653 155.867 122.404C156.497 122.14 157.165 122.008 157.869 122.008C158.734 122.008 159.592 122.184 160.443 122.536C160.663 122.609 160.773 122.734 160.773 122.91L160.927 125.44C160.927 125.499 160.89 125.528 160.817 125.528C160.743 125.528 160.699 125.499 160.685 125.44C160.567 124.677 160.252 123.973 159.739 123.328C159.225 122.668 158.485 122.338 157.517 122.338C156.695 122.338 156.079 122.58 155.669 123.064C155.273 123.533 155.075 124.12 155.075 124.824ZM178.575 135.736C178.619 135.736 178.641 135.78 178.641 135.868C178.641 135.956 178.619 136 178.575 136C178.121 136 177.761 135.993 177.497 135.978L175.979 135.956L174.373 135.978C174.109 135.993 173.757 136 173.317 136C173.273 136 173.251 135.956 173.251 135.868C173.251 135.78 173.273 135.736 173.317 135.736C173.889 135.736 174.307 135.699 174.571 135.626C174.835 135.553 175.011 135.413 175.099 135.208C175.202 134.988 175.253 134.658 175.253 134.218V129.07H166.805V134.218C166.805 134.658 166.849 134.988 166.937 135.208C167.04 135.413 167.223 135.553 167.487 135.626C167.751 135.699 168.169 135.736 168.741 135.736C168.771 135.736 168.785 135.78 168.785 135.868C168.785 135.956 168.771 136 168.741 136C168.287 136 167.927 135.993 167.663 135.978L166.079 135.956L164.561 135.978C164.297 135.993 163.931 136 163.461 136C163.432 136 163.417 135.956 163.417 135.868C163.417 135.78 163.432 135.736 163.461 135.736C164.019 135.736 164.429 135.699 164.693 135.626C164.972 135.553 165.155 135.413 165.243 135.208C165.346 134.988 165.397 134.658 165.397 134.218V124.032C165.397 123.592 165.346 123.269 165.243 123.064C165.155 122.859 164.979 122.719 164.715 122.646C164.451 122.558 164.041 122.514 163.483 122.514C163.454 122.514 163.439 122.47 163.439 122.382C163.439 122.294 163.454 122.25 163.483 122.25L164.605 122.272C165.221 122.301 165.713 122.316 166.079 122.316C166.505 122.316 167.04 122.301 167.685 122.272L168.741 122.25C168.771 122.25 168.785 122.294 168.785 122.382C168.785 122.47 168.771 122.514 168.741 122.514C168.184 122.514 167.766 122.558 167.487 122.646C167.223 122.734 167.04 122.888 166.937 123.108C166.849 123.313 166.805 123.636 166.805 124.076V128.608H175.253V124.076C175.253 123.636 175.202 123.313 175.099 123.108C175.011 122.888 174.835 122.734 174.571 122.646C174.307 122.558 173.889 122.514 173.317 122.514C173.273 122.514 173.251 122.47 173.251 122.382C173.251 122.294 173.273 122.25 173.317 122.25L174.373 122.272C175.019 122.301 175.554 122.316 175.979 122.316C176.375 122.316 176.881 122.301 177.497 122.272L178.575 122.25C178.619 122.25 178.641 122.294 178.641 122.382C178.641 122.47 178.619 122.514 178.575 122.514C178.018 122.514 177.607 122.558 177.343 122.646C177.079 122.719 176.896 122.859 176.793 123.064C176.705 123.269 176.661 123.592 176.661 124.032V134.218C176.661 134.658 176.705 134.988 176.793 135.208C176.896 135.413 177.079 135.553 177.343 135.626C177.607 135.699 178.018 135.736 178.575 135.736ZM183.763 134.218C183.763 134.658 183.807 134.988 183.895 135.208C183.983 135.413 184.151 135.553 184.401 135.626C184.665 135.699 185.075 135.736 185.633 135.736C185.677 135.736 185.699 135.78 185.699 135.868C185.699 135.956 185.677 136 185.633 136C185.193 136 184.841 135.993 184.577 135.978L183.015 135.956L181.497 135.978C181.233 135.993 180.873 136 180.419 136C180.375 136 180.353 135.956 180.353 135.868C180.353 135.78 180.375 135.736 180.419 135.736C180.976 135.736 181.379 135.699 181.629 135.626C181.893 135.553 182.069 135.413 182.157 135.208C182.259 134.988 182.311 134.658 182.311 134.218V124.032C182.311 123.592 182.259 123.269 182.157 123.064C182.069 122.859 181.893 122.719 181.629 122.646C181.379 122.558 180.976 122.514 180.419 122.514C180.375 122.514 180.353 122.47 180.353 122.382C180.353 122.294 180.375 122.25 180.419 122.25L181.497 122.272C182.113 122.301 182.619 122.316 183.015 122.316C183.455 122.316 183.983 122.301 184.599 122.272L185.633 122.25C185.677 122.25 185.699 122.294 185.699 122.382C185.699 122.47 185.677 122.514 185.633 122.514C185.09 122.514 184.687 122.558 184.423 122.646C184.173 122.734 183.997 122.888 183.895 123.108C183.807 123.313 183.763 123.636 183.763 124.076V134.218ZM190.913 134.13C190.913 134.599 190.972 134.944 191.089 135.164C191.221 135.369 191.463 135.516 191.815 135.604C192.182 135.692 192.754 135.736 193.531 135.736C193.575 135.736 193.597 135.78 193.597 135.868C193.597 135.956 193.575 136 193.531 136C192.93 136 192.461 135.993 192.123 135.978L190.209 135.956L188.735 135.978C188.457 135.993 188.083 136 187.613 136C187.584 136 187.569 135.956 187.569 135.868C187.569 135.78 187.584 135.736 187.613 135.736C188.171 135.736 188.574 135.699 188.823 135.626C189.087 135.553 189.263 135.413 189.351 135.208C189.439 134.988 189.483 134.658 189.483 134.218V124.032C189.483 123.592 189.439 123.269 189.351 123.064C189.263 122.859 189.087 122.719 188.823 122.646C188.574 122.558 188.171 122.514 187.613 122.514C187.584 122.514 187.569 122.47 187.569 122.382C187.569 122.294 187.584 122.25 187.613 122.25L188.713 122.272C189.329 122.301 189.821 122.316 190.187 122.316C190.554 122.316 190.965 122.294 191.419 122.25C191.595 122.25 191.874 122.243 192.255 122.228C192.637 122.199 192.967 122.184 193.245 122.184C194.595 122.184 195.673 122.485 196.479 123.086C197.301 123.687 197.711 124.604 197.711 125.836C197.711 126.804 197.469 127.618 196.985 128.278C196.516 128.938 195.907 129.429 195.159 129.752C194.411 130.075 193.641 130.236 192.849 130.236C192.424 130.236 192.072 130.199 191.793 130.126C191.749 130.126 191.727 130.089 191.727 130.016C191.727 129.972 191.735 129.928 191.749 129.884C191.779 129.84 191.808 129.825 191.837 129.84C192.072 129.899 192.336 129.928 192.629 129.928C193.597 129.928 194.411 129.613 195.071 128.982C195.746 128.351 196.083 127.442 196.083 126.254C196.083 125.095 195.768 124.186 195.137 123.526C194.507 122.851 193.7 122.514 192.717 122.514C192.189 122.514 191.808 122.543 191.573 122.602C191.339 122.661 191.17 122.8 191.067 123.02C190.965 123.225 190.913 123.577 190.913 124.076V134.13ZM201.825 124.824C201.825 125.396 201.964 125.895 202.243 126.32C202.521 126.745 202.859 127.105 203.255 127.398C203.651 127.677 204.208 128.036 204.927 128.476C205.689 128.931 206.283 129.312 206.709 129.62C207.134 129.928 207.493 130.324 207.787 130.808C208.095 131.277 208.249 131.842 208.249 132.502C208.249 133.206 208.073 133.844 207.721 134.416C207.369 134.988 206.848 135.443 206.159 135.78C205.484 136.103 204.67 136.264 203.717 136.264C202.587 136.264 201.553 136.007 200.615 135.494C200.541 135.45 200.49 135.399 200.461 135.34C200.446 135.281 200.431 135.193 200.417 135.076L200.131 132.084C200.116 132.025 200.145 131.989 200.219 131.974C200.307 131.959 200.358 131.981 200.373 132.04C200.607 133.096 201.04 134.005 201.671 134.768C202.316 135.531 203.167 135.912 204.223 135.912C204.956 135.912 205.572 135.714 206.071 135.318C206.584 134.907 206.841 134.262 206.841 133.382C206.841 132.722 206.694 132.15 206.401 131.666C206.107 131.182 205.748 130.786 205.323 130.478C204.912 130.155 204.347 129.781 203.629 129.356C202.925 128.931 202.367 128.564 201.957 128.256C201.561 127.948 201.223 127.559 200.945 127.09C200.666 126.621 200.527 126.071 200.527 125.44C200.527 124.707 200.717 124.083 201.099 123.57C201.495 123.042 202.001 122.653 202.617 122.404C203.247 122.14 203.915 122.008 204.619 122.008C205.484 122.008 206.342 122.184 207.193 122.536C207.413 122.609 207.523 122.734 207.523 122.91L207.677 125.44C207.677 125.499 207.64 125.528 207.567 125.528C207.493 125.528 207.449 125.499 207.435 125.44C207.317 124.677 207.002 123.973 206.489 123.328C205.975 122.668 205.235 122.338 204.267 122.338C203.445 122.338 202.829 122.58 202.419 123.064C202.023 123.533 201.825 124.12 201.825 124.824Z" fill="rgb(100, 100, 100)"/>
<path d="M127.919 185.93C94.3979 185.93 62.8749 178.545 39.1534 165.163C15.2049 151.644 2.01319 133.511 2.01319 114.108C2.01319 94.704 15.2049 76.5714 39.1534 63.0487C62.8749 49.6582 94.3979 42.2847 127.919 42.2847C161.439 42.2847 192.962 49.6699 216.682 63.0487C240.632 76.5714 253.822 94.704 253.822 114.108C253.822 133.511 240.632 151.644 216.682 165.163C192.962 178.557 161.437 185.93 127.919 185.93ZM127.919 44.5508C94.5469 44.5508 63.1822 51.8816 39.6026 65.1943C16.2522 78.3749 3.39147 95.7457 3.39147 114.108C3.39147 132.469 16.2522 149.84 39.6026 163.021C63.1822 176.334 94.5469 183.664 127.919 183.664C161.29 183.664 192.655 176.334 216.235 163.021C239.583 149.84 252.443 132.466 252.443 114.108C252.443 95.7496 239.583 78.3749 216.235 65.1943C192.655 51.8816 161.29 44.5508 127.919 44.5508Z" fill="rgb(196, 153, 110)"/>
<path d="M28.782 67.8958C21.2949 70.776 15.4934 79.1251 10.907 88.9513C8.28518 94.5718 6.03218 100.639 3.92103 106.808C1.88316 112.763 -0.504591 119.58 0.0935293 126.693C1.2945 140.947 11.5855 143.598 18.5336 145.16C24.0183 146.393 28.834 149.008 33.6048 153.688C37.7727 157.781 41.6759 162.554 45.8651 166.593C54.1726 174.6 63.291 180.586 72.797 183.33C82.3433 186.086 91.4901 184.652 100.895 181.309C106.434 179.338 111.933 177.663 117.611 177.294C123.143 176.932 128.682 177.43 134.207 177.916C145.304 178.89 156.401 179.871 167.496 180.858C184.064 182.32 203.291 185.752 217.925 169.975C225.32 161.995 229.398 148.526 236.469 140.045C242.046 133.356 250.845 132.135 254.566 121.687C258.699 110.069 253.167 97.2888 247.238 91.0736C243.001 86.6347 238.207 83.6184 233.637 80.2601L218.388 69.0463C213.4 65.377 208.426 61.6611 203.417 58.054C198.842 54.7696 194.173 51.8621 189.201 50.7621C178.799 48.4572 168.201 51.9282 157.742 51.0148C146.839 50.0741 136.075 46.883 125.283 44.337C120.29 43.1709 115.28 42.1098 110.247 41.4801C105.084 40.8349 99.6534 40.1935 94.5043 41.3829C89.9652 42.4324 86.9581 46.642 83.3764 50.9098C78.7853 56.3826 73.7734 57.0007 68.291 56.0134C63.3784 55.131 58.584 53.9455 53.6336 54.4081C44.4239 55.2534 35.5034 59.9972 27.7371 68.1795C27.4203 68.5099 27.7134 69.3456 28.0326 69.0113C36.1799 60.4706 45.5827 55.7195 55.2411 55.2632C63.5155 54.9095 73.0027 61.1169 80.8019 54.7113C84.8209 51.4151 87.7051 45.3321 92.1024 43.1865C96.9394 40.8232 102.637 41.6861 107.613 42.1526C117.923 43.1243 128.11 46.0395 138.316 48.496C147.824 50.7777 157.413 52.659 167.042 52.1653C177.333 51.6328 187.404 49.289 197.357 55.0689C207.185 60.7788 216.641 68.8014 226.152 75.794C230.748 79.1757 235.351 82.5262 239.94 85.935C244.164 89.0757 248.547 92.5428 251.678 98.3344C254.883 104.278 256.68 113.385 254.226 120.778C252.389 126.309 248.765 129.197 245.398 131.599C242.032 134.001 238.569 136.178 235.613 139.925C232.512 143.854 230.008 148.865 227.493 153.739C221.887 164.622 215.736 172.75 207.308 176.889C199.355 180.796 190.932 181.348 182.686 181.06C162.676 180.353 142.706 176.524 122.692 176.236C117.935 176.166 113.178 176.559 108.481 177.842C103.583 179.179 98.7881 181.309 93.8849 182.654C84.2488 185.293 74.4401 183.882 65.0877 179.373C56.0733 175.028 47.8108 167.895 40.0281 159.359C36.3519 155.332 32.6733 151.197 28.5953 148.324C24.2713 145.281 19.7488 144.608 15.1529 143.45C10.6611 142.315 5.93289 140.239 2.84536 134.316C-1.26347 126.41 1.28268 116.688 3.93758 108.786C7.73197 97.4909 12.0418 86.0128 18.1766 77.7336C21.3021 73.4418 24.9894 70.3979 28.9499 68.8403C29.3163 68.7004 29.1603 67.7714 28.7938 67.9113L28.782 67.8958Z" fill="rgb(196, 153, 110)"/>
<path d="M93.3483 43.2526C117.978 27.3939 144.713 22.474 170.865 28.9876C171.38 29.1158 171.603 27.8215 171.083 27.6854C144.791 21.1104 117.91 26.0317 93.1426 41.9544C92.6556 42.2692 92.8683 43.5714 93.3601 43.2526H93.3483Z" fill="rgb(196, 153, 110)"/>
<path d="M113.384 32.9794C123.313 20.6734 135.704 16.7476 147.664 13.1561C148.184 13.0006 147.964 11.7023 147.446 11.8578C135.411 15.4649 122.952 19.4412 112.961 31.8173C112.545 32.3342 112.961 33.5042 113.375 32.9833L113.384 32.9794Z" fill="rgb(196, 153, 110)"/>
<path d="M120.677 25.7458C130.843 10.5401 145.389 4.78353 158.661 10.6722C158.766 10.7197 158.878 10.6967 158.972 10.6085C159.067 10.5203 159.136 10.3741 159.165 10.2019C159.194 10.0298 159.18 9.84582 159.126 9.69055C159.073 9.53529 158.984 9.42142 158.879 9.374C145.318 3.35313 130.488 9.26128 120.108 24.7935C119.717 25.3765 120.297 26.3483 120.687 25.7458H120.677Z" fill="rgb(196, 153, 110)"/>
<path d="M122.439 24.6925C135.141 24.2222 148.207 23.2388 159.04 10.9988C159.47 10.509 159.061 9.33905 158.626 9.8327C147.912 21.9522 135.009 22.8773 122.439 23.3437C121.911 23.3437 121.911 24.7119 122.439 24.6925Z" fill="rgb(196, 153, 110)"/>
<path d="M128.023 20.3041C130.459 17.0709 133.03 14.1201 135.715 11.473C136.169 11.0299 135.756 9.86379 135.302 10.3069C132.557 13.0161 129.932 16.0371 127.443 19.3479C127.032 19.8921 127.616 20.8405 128.023 20.3002V20.3041Z" fill="rgb(196, 153, 110)"/>
<path d="M133.836 17.8864C137.233 13.8401 141.106 11.1892 145.049 8.94642C145.545 8.66656 145.33 7.36444 144.831 7.64819C140.812 9.93371 136.874 12.6196 133.422 16.7281C132.999 17.2334 133.406 18.4033 133.836 17.8942V17.8864Z" fill="rgb(196, 153, 110)"/>
<path d="M141.179 15.251C145.173 12.2912 149.434 10.4242 153.794 9.72382C154.314 9.63831 154.319 8.28954 153.794 8.37505C149.291 9.10107 144.89 11.0297 140.765 14.085C140.292 14.4387 140.699 15.6009 141.179 15.251Z" fill="rgb(196, 153, 110)"/>
<path d="M132.009 19.7677C135.051 21.7089 138.322 22.4878 141.574 22.0455C142.096 21.9755 142.101 20.6268 141.574 20.7006C138.396 21.1387 135.199 20.3755 132.228 18.4695C131.739 18.1469 131.519 19.449 132.009 19.7677Z" fill="rgb(196, 153, 110)"/>
<path d="M138.585 17.0002C142.673 18.555 147.042 19.2041 151.167 17.6688C151.68 17.4783 151.463 16.1762 150.947 16.3667C146.976 17.8476 142.737 17.214 138.805 15.702C138.292 15.5038 138.072 16.802 138.585 17.0002Z" fill="rgb(196, 153, 110)"/>
<path d="M144.564 14.0384C148.541 14.1978 152.572 14.2677 156.524 13.4787C157.042 13.3737 157.049 12.025 156.524 12.1299C152.572 12.9073 148.541 12.8529 144.564 12.6935C144.037 12.6702 144.037 14.019 144.564 14.0384Z" fill="rgb(196, 153, 110)"/>
<path d="M155.948 25.9946C166.454 19.3015 177.633 15.9155 188.901 16.013C189.004 16 189.101 15.9234 189.171 15.7983C189.242 15.6733 189.281 15.5091 189.281 15.3386C189.281 15.1681 189.242 15.0038 189.171 14.8788C189.101 14.7538 189.004 14.6771 188.901 14.6642C177.561 14.5632 166.31 17.9663 155.735 24.6964C155.248 25.0073 155.46 26.3095 155.952 25.9946H155.948Z" fill="rgb(196, 153, 110)"/>
<path d="M161.361 22.473C171.527 8.50337 186.364 6.59877 198.067 16.8175C198.539 17.2062 198.303 15.5737 197.83 15.1656C191.975 10.0189 185.316 7.87326 178.713 9.00526C172.109 10.1373 165.863 14.495 160.78 21.5168C160.373 22.0766 160.957 23.025 161.359 22.473H161.361Z" fill="rgb(196, 153, 110)"/>
<path d="M161.782 22.3525C168.378 23.6812 175.035 23.9702 181.664 23.2154C187.026 22.5896 193.809 22.3953 198.412 17.3384C198.849 16.8603 198.44 15.6942 197.998 16.1723C195.499 18.9165 192.561 19.6705 189.655 20.4013C186.407 21.2123 183.141 21.7617 179.858 22.0493C173.826 22.5611 167.778 22.21 161.782 20.9999C161.26 20.8949 161.262 22.2437 161.782 22.3486V22.3525Z" fill="rgb(196, 153, 110)"/>
<path d="M167.449 19.5811C170.962 15.08 175.033 12.0988 179.338 10.3069C179.849 10.0931 179.631 8.79098 179.121 9.00477C174.671 10.8627 170.496 13.9801 166.87 18.6288C166.454 19.1613 167.038 20.1097 167.449 19.5811Z" fill="rgb(196, 153, 110)"/>
<path d="M178.501 16.9302C182.006 13.3861 186.083 11.6768 190.192 12.0288C190.719 12.0715 190.716 10.7228 190.192 10.6839C185.937 10.334 181.718 12.1062 178.087 15.768C177.636 16.2189 178.047 17.385 178.501 16.9341V16.9302Z" fill="rgb(196, 153, 110)"/>
<path d="M172.17 18.3296C174.695 19.4957 177.099 21.101 179.704 21.8084C182.245 22.4707 184.827 22.5843 187.385 22.1465C187.906 22.0649 187.91 20.7161 187.385 20.7978C184.62 21.2761 181.827 21.0968 179.092 20.2653C176.787 19.5345 174.636 18.073 172.387 17.0275C172.285 16.9916 172.178 17.0215 172.088 17.1112C171.999 17.2009 171.933 17.3435 171.905 17.5099C171.878 17.6763 171.889 17.8538 171.939 18.0061C171.988 18.1585 172.071 18.2742 172.17 18.3296Z" fill="rgb(196, 153, 110)"/>
<path d="M180.34 16.4483C185.123 19.072 190.244 20.5996 195.293 19.9116C195.816 19.8377 195.821 18.4889 195.293 18.5628C190.308 19.243 185.281 17.7388 180.558 15.1501C180.057 14.8741 179.849 16.1762 180.34 16.4483Z" fill="rgb(196, 153, 110)"/>
<path d="M107.493 9.78992C109.966 15.3171 110.408 22.5352 108.152 28.4783C106.025 34.0639 101.894 36.6059 98.3649 39.0547C97.8921 39.3851 98.0954 40.6911 98.5824 40.3529C102.566 37.5932 107.093 34.7713 109.221 28.1363C111.216 21.9366 110.698 14.6875 108.202 9.10971C107.892 8.42172 107.181 9.09027 107.493 9.78992Z" fill="rgb(196, 153, 110)"/>
<path d="M107.98 10.2642C107.252 10.2408 106.519 10.2331 105.791 10.1864C105.396 10.1911 105.001 10.1548 104.608 10.0776C104.44 9.01516 104.597 8.57981 105.081 8.77157C105.144 8.77017 105.206 8.74535 105.262 8.69897C105.318 8.6526 105.367 8.58588 105.405 8.50388C105.443 8.42188 105.469 8.32674 105.481 8.22564C105.494 8.12455 105.492 8.02014 105.476 7.92033C105.4 7.3917 104.923 5.30443 105.098 4.93128C105.601 3.86237 106.126 5.35106 106.306 5.9652C106.486 6.57933 106.937 6.28782 107.055 5.80584C107.292 4.82634 108.263 3.41149 108.554 4.88075C108.519 4.70973 108.521 6.43553 108.505 6.00019C108.506 6.17826 108.55 6.34813 108.627 6.4737C108.704 6.59927 108.808 6.67063 108.916 6.67262C109.053 6.67262 110.223 6.38888 110.278 6.55213C110.696 7.84259 108.519 8.94649 108.136 8.9737C107.611 9.01257 107.606 10.3613 108.136 10.3225C109.318 10.237 110.814 9.04755 111.067 6.90973C111.33 4.68252 109.793 5.22668 108.916 5.32386L109.325 6.00019C109.273 4.41432 109.767 2.50194 108.292 2.32703C107.15 2.18321 106.62 3.9712 106.263 5.43658L107.013 5.27332C106.642 4.00229 105.878 2.29982 104.902 3.22491C103.762 4.30548 104.464 6.72316 104.687 8.27793L105.081 7.4228C104.204 7.4228 102.904 8.03694 103.339 9.95709C103.899 12.4408 106.859 11.5741 107.987 11.6129C108.516 11.6324 108.516 10.2836 107.987 10.2642H107.98Z" fill="rgb(196, 153, 110)"/>
<path d="M108.689 8.25463C108.062 7.1624 107.006 6.47053 106.185 7.44226C105.523 8.21965 105.301 9.91046 105.928 10.8977C106.554 11.885 107.977 12.0172 108.765 11.6013C109.552 11.1854 110.077 9.65781 109.606 8.40622C109.33 7.6677 108.62 8.34402 108.897 9.08643C109.505 10.6995 107.211 10.4508 106.769 10.1787C106.223 9.83662 106.282 8.71718 106.819 8.39068C107.292 8.09916 107.798 8.67443 108.105 9.20694C108.469 9.84051 109.051 8.88432 108.684 8.25463H108.689Z" fill="rgb(196, 153, 110)"/>
<path d="M128.094 28.5055C137.013 32.8259 146.295 34.7655 155.588 34.2504C156.113 34.2232 156.115 32.8745 155.588 32.9017C146.369 33.419 137.16 31.499 128.311 27.2151C127.803 26.9702 127.585 28.2684 128.091 28.5133L128.094 28.5055Z" fill="rgb(196, 153, 110)"/>
<path d="M136.349 31.6462C146.59 27.5644 157.371 29.3185 166.926 36.6215C167.399 36.983 167.818 35.8208 167.34 35.4554C157.591 27.987 146.588 26.1848 136.134 30.3441C135.621 30.5501 135.838 31.8483 136.351 31.6462H136.349Z" fill="rgb(196, 153, 110)"/>
<path d="M136.285 32.2215C145.536 41.9816 156.713 41.1265 167.064 37.5777C167.579 37.4028 167.361 36.1046 166.846 36.2795C156.706 39.7544 145.765 40.6251 136.699 31.0593C136.254 30.589 135.843 31.7551 136.285 32.2254V32.2215Z" fill="rgb(196, 153, 110)"/>
<path d="M142.827 32.9173C145.881 31.4597 149.066 30.3363 152.255 30.1964C152.78 30.1731 152.782 28.8282 152.255 28.8515C148.995 28.9953 145.73 30.1342 142.609 31.619C142.103 31.86 142.318 33.1738 142.827 32.9212V32.9173Z" fill="rgb(196, 153, 110)"/>
<path d="M152.687 34.0056C157.135 33.4061 161.611 34.1343 165.9 36.1551C166.409 36.3922 166.626 35.094 166.12 34.8568C161.76 32.7998 157.209 32.0545 152.687 32.6568C152.165 32.7268 152.16 34.0756 152.687 34.0056Z" fill="rgb(196, 153, 110)"/>
<path d="M145.973 34.0367C147.761 36.9666 150.024 38.9904 152.491 39.8671C153.007 40.0498 153.226 38.7515 152.709 38.565C150.381 37.7442 148.247 35.8373 146.562 33.0727C146.485 32.9464 146.381 32.8755 146.272 32.8755C146.164 32.8755 146.06 32.9464 145.983 33.0727C145.906 33.199 145.863 33.3703 145.863 33.5489C145.863 33.7275 145.906 33.8987 145.983 34.025L145.973 34.0367Z" fill="rgb(196, 153, 110)"/>
<path d="M152.846 34.0289C155.347 36.6988 158.204 38.335 161.172 38.7982C161.695 38.8837 161.692 37.5349 161.172 37.4494C158.347 36.994 155.63 35.4203 153.255 32.8628C152.81 32.3925 152.399 33.5586 152.841 34.0289H152.846Z" fill="rgb(196, 153, 110)"/>
<path d="M87.5207 46.7547C91.4967 36.3209 97.3146 28.1304 104.197 23.2776C104.67 22.9356 104.263 21.7734 103.783 22.1115C96.7776 27.0793 90.8584 35.438 86.8138 46.0745C86.5325 46.813 87.2417 47.4893 87.523 46.7547H87.5207Z" fill="rgb(196, 153, 110)"/>
<path d="M90.1141 40.2674C91.7477 26.9857 99.249 18.3801 107.415 20.6267C107.93 20.7705 108.152 19.4606 107.632 19.3285C99.0504 16.9652 91.0526 25.8469 89.3245 39.9292C89.2204 40.7766 90.01 41.1381 90.1141 40.2869V40.2674Z" fill="rgb(196, 153, 110)"/>
<path d="M90.7217 39.3191C94.1894 38.5403 97.5017 36.4607 100.402 33.2411C103.303 30.0214 105.715 25.7479 107.45 20.7511C107.713 19.9971 107.003 19.3169 106.741 20.067C105.059 24.9123 102.719 29.0533 99.9031 32.1675C97.0875 35.2817 93.8727 37.2848 90.509 38.0208C89.9889 38.1374 90.2087 39.4357 90.7265 39.3191H90.7217Z" fill="rgb(196, 153, 110)"/>
<path d="M93.5941 34.0328C94.7262 30.3221 96.1936 26.9148 97.9464 23.9267C98.3129 23.3048 97.7337 22.3486 97.3672 22.9744C95.5582 26.0403 94.0436 29.541 92.8754 33.3565C92.639 34.1338 93.3482 34.8141 93.5847 34.0367L93.5941 34.0328Z" fill="rgb(196, 153, 110)"/>
<path d="M99.4003 26.9469C101.081 23.888 103.246 21.6569 105.653 20.5024C106.157 20.2575 105.942 18.9476 105.433 19.2002C102.888 20.4179 100.597 22.7694 98.814 25.9946C98.4594 26.6321 99.0504 27.5882 99.3955 26.9469H99.4003Z" fill="rgb(196, 153, 110)"/>
<path d="M96.0835 30.7133C98.3075 31.1528 100.563 30.7717 102.686 29.5978C103.183 29.3257 102.97 28.0236 102.467 28.2957C100.414 29.4288 98.233 29.794 96.0835 29.3646C95.561 29.2635 95.5657 30.6123 96.0835 30.7133Z" fill="rgb(196, 153, 110)"/>
<path d="M102.195 25.3416C103.192 25.5504 104.203 25.4436 105.176 25.0267C105.687 24.8091 105.469 23.5108 104.956 23.7246C104.055 24.1067 103.117 24.1977 102.195 23.9928C101.672 23.884 101.677 25.2327 102.195 25.3416Z" fill="rgb(196, 153, 110)"/>
<path d="M168.406 28.4589C172.338 26.3833 176.3 27.6349 179.74 31.2653C180.187 31.7356 180.598 30.5695 180.154 30.0992C176.548 26.2978 172.307 24.9879 168.189 27.1568C167.688 27.4211 167.903 28.7116 168.406 28.4589Z" fill="rgb(196, 153, 110)"/>
<path d="M167.522 28.6144C170.853 33.0144 176.132 32.6218 180.116 31.6151C180.636 31.4829 180.414 30.1847 179.898 30.3169C176.265 31.2342 171.135 31.6695 168.101 27.6621C167.695 27.1257 167.111 28.0741 167.522 28.6144Z" fill="rgb(196, 153, 110)"/>
<path d="M169.65 29.1857C172.757 29.521 175.851 30.1256 178.92 30.997C179.435 31.1409 179.657 29.831 179.137 29.6949C175.997 28.8039 172.83 28.1837 169.65 27.837C169.123 27.7826 169.125 29.1313 169.65 29.1857Z" fill="rgb(196, 153, 110)"/>
<path d="M108.739 34.9889C114.981 34.2965 121.251 34.8394 127.415 36.6059C127.93 36.7536 128.153 35.4398 127.633 35.3038C121.401 33.5087 115.061 32.9514 108.748 33.6441C108.223 33.6985 108.221 35.0472 108.748 34.9889H108.739Z" fill="rgb(196, 153, 110)"/>
<path d="M127.283 35.8868C127.876 35.3703 128.514 35.0034 129.174 34.7985C129.276 34.7713 130.098 34.4681 130.186 34.643C129.982 34.2349 129.375 34.9618 129.162 35.0667C128.86 35.2222 128.72 36.054 129.063 36.2989L129.966 36.9324L130.344 37.2006C130.258 37.3642 130.14 37.472 130.01 37.5047C129.88 37.5375 129.747 37.4931 129.635 37.3794C129.565 37.3467 129.492 37.3456 129.422 37.3764C129.352 37.4072 129.288 37.4687 129.238 37.5543C129.001 38.0052 129.105 38.1218 129.087 38.6427L129.169 38.9692C129.086 39.0115 128.997 39.0057 128.916 38.9526C128.835 38.8996 128.767 38.8025 128.725 38.6777C128.515 38.3585 128.358 37.9573 128.269 37.5116C128.032 36.4194 127.834 35.3155 126.98 35.5681C126.462 35.7314 126.68 37.0335 127.198 36.8702C127.209 36.8702 127.86 39.1208 127.997 39.3695C128.271 39.9188 128.652 40.2984 129.075 40.4462C129.247 40.4934 129.424 40.4545 129.583 40.3347C129.742 40.2148 129.875 40.0194 129.966 39.7738C130.041 39.5222 130.068 39.2386 130.042 38.9614C130.022 38.8167 129.992 38.676 129.954 38.5416C129.907 38.2074 129.862 38.1918 129.817 38.4989L129.417 38.6699C130.11 39.0586 131.162 39.1208 131.309 37.566C131.455 36.0112 130.113 35.5798 129.484 35.1328C129.453 35.5448 129.42 35.9529 129.387 36.3649C129.871 36.1201 130.505 35.7197 130.782 34.9618C130.834 34.8351 130.868 34.6916 130.884 34.5409C130.899 34.3902 130.894 34.2359 130.87 34.0884C130.846 33.941 130.803 33.8038 130.743 33.6862C130.684 33.5686 130.61 33.4734 130.526 33.407C130.082 33.0805 129.427 33.3681 128.964 33.508C128.232 33.7417 127.525 34.153 126.867 34.7285C126.394 35.1172 126.812 36.2833 127.28 35.8946L127.283 35.8868Z" fill="rgb(196, 153, 110)"/>
<path d="M46.1889 57.2961C48.3166 52.9389 50.7445 49.1919 53.8344 46.7275C58.6738 42.8756 64.2602 41.9233 69.5487 41.3325C70.0735 41.2742 70.0782 39.9254 69.5487 39.9837C64.246 40.5745 58.7211 41.5385 53.8368 45.2427C50.5034 47.7615 47.8911 51.6834 45.6097 56.3438C45.2811 57.0124 45.8579 57.9725 46.1889 57.2961Z" fill="rgb(196, 153, 110)"/>
<path d="M48.5483 53.001C51.8959 39.4201 61.603 37.8886 69.2154 40.6561C69.7308 40.8427 69.9506 39.5444 69.4353 39.3579C61.3193 36.4077 51.286 38.3317 47.7587 52.6395C47.5601 53.4441 48.3545 53.8056 48.5483 53.001Z" fill="rgb(196, 153, 110)"/>
<path d="M49.0259 52.5929C53.7541 52.5696 58.6194 51.8155 63.2106 49.7399C66.2697 48.3484 69.0641 45.748 70.1445 40.5861C70.3171 39.766 69.5251 39.4201 69.3549 40.2285C68.0664 46.3738 64.1538 48.1462 60.662 49.3395C56.8354 50.6175 52.9401 51.2569 49.0353 51.248C48.9269 51.248 48.8228 51.3189 48.7461 51.445C48.6694 51.5711 48.6264 51.7421 48.6264 51.9205C48.6264 52.0988 48.6694 52.2698 48.7461 52.3959C48.8228 52.522 48.9269 52.5929 49.0353 52.5929H49.0259Z" fill="rgb(196, 153, 110)"/>
<path d="M52.624 47.6293C54.5379 44.7066 56.7109 42.2793 59.0686 40.4307C59.5414 40.042 59.13 38.8953 58.6548 39.2646C56.231 41.1716 53.9988 43.6765 52.0353 46.6925C51.65 47.2872 52.2292 48.2473 52.6145 47.6448L52.624 47.6293Z" fill="rgb(196, 153, 110)"/>
<path d="M61.0119 42.5297C62.8016 40.7642 64.8911 40.0004 66.9671 40.353C67.492 40.4346 67.4872 39.0858 66.9671 39.0042C64.7453 38.6491 62.5127 39.4761 60.5982 41.3636C60.1443 41.8067 60.5557 42.9728 61.0119 42.5297Z" fill="rgb(196, 153, 110)"/>
<path d="M53.7706 46.7469C57.25 49.1717 61.0921 49.8231 64.7992 48.6166C65.3169 48.4455 65.0994 47.1473 64.5817 47.3183C61.0865 48.4486 57.4658 47.8452 54.1796 45.5848C53.7068 45.2427 53.2812 46.4049 53.7659 46.7508L53.7706 46.7469Z" fill="rgb(196, 153, 110)"/>
<path d="M58.6809 44.03C61.3051 45.5264 65.7354 47.6487 68.4329 45.4292C68.9057 45.0406 68.4896 43.8745 68.0192 44.2632C66.9246 45.1649 65.3217 44.8384 64.1539 44.6519C62.3634 44.3518 60.6004 43.7087 58.9008 42.7356C58.3996 42.4519 58.1916 43.754 58.6809 44.0338V44.03Z" fill="rgb(196, 153, 110)"/>
<path d="M72.1776 58.2096C77.8281 61.2086 83.759 62.5249 89.6909 62.0965C90.2181 62.0615 90.2205 60.7128 89.6909 60.7516C83.8329 61.175 77.9759 59.8772 72.3951 56.9191C71.8915 56.6509 71.6859 57.953 72.1776 58.2173V58.2096Z" fill="rgb(196, 153, 110)"/>
<path d="M78.2841 60.5223C84.3424 57.7829 90.7791 58.3711 96.6154 62.1975C97.1072 62.5163 97.3247 61.2141 96.8329 60.8993C90.854 57.0033 84.2652 56.4206 78.0666 59.2396C77.9619 59.287 77.873 59.4009 77.8193 59.5561C77.7657 59.7114 77.7517 59.8953 77.7806 60.0675C77.8094 60.2396 77.8787 60.3859 77.9731 60.4741C78.0675 60.5623 78.1794 60.5852 78.2841 60.5378V60.5223Z" fill="rgb(196, 153, 110)"/>
<path d="M78.3716 61.7078C84.0668 67.8881 91.0362 67.3672 96.9086 62.2365C97.3814 61.8283 96.9606 60.6817 96.4949 61.0704C90.873 65.9835 84.237 66.4577 78.7853 60.5456C78.3433 60.0676 77.9343 61.2336 78.3716 61.7117V61.7078Z" fill="rgb(196, 153, 110)"/>
<path d="M84.672 61.3657C86.3269 60.0286 88.029 59.5116 89.873 59.3873C90.3979 59.3523 90.4002 58.0035 89.873 58.0385C87.8943 58.1706 86.0503 58.7615 84.263 60.2035C83.7902 60.5922 84.2039 61.7583 84.6767 61.3696L84.672 61.3657Z" fill="rgb(196, 153, 110)"/>
<path d="M89.4144 61.7622C91.5087 61.426 93.618 61.426 95.7124 61.7622C96.2372 61.8438 96.2325 60.495 95.7124 60.4134C93.6179 60.0811 91.5088 60.0811 89.4144 60.4134C88.8943 60.495 88.8895 61.8438 89.4144 61.7622Z" fill="rgb(196, 153, 110)"/>
<path d="M81.407 61.6533C83.7751 64.1136 86.4481 65.6714 89.2299 66.2127C89.75 66.3254 89.7453 64.9767 89.2299 64.8639C86.5933 64.3316 84.0626 62.8362 81.8231 60.4873C81.3763 60.0208 80.965 61.1869 81.407 61.6533Z" fill="rgb(196, 153, 110)"/>
<path d="M86.9651 62.6795C89.1426 64.0274 91.4791 64.5367 93.795 64.1682C94.3175 64.0905 94.3222 62.7417 93.795 62.8233C91.5505 63.1805 89.286 62.6872 87.1755 61.3813C86.679 61.0781 86.4663 62.3802 86.9557 62.6795H86.9651Z" fill="rgb(196, 153, 110)"/>
<path d="M208.005 59.5505C196.92 55.7607 184.75 57.1834 173.82 61.8321C173.31 62.0498 173.527 63.348 174.038 63.1304C184.811 58.5477 196.854 57.1134 207.788 60.8526C208.301 61.0275 208.521 59.7293 208.005 59.5505Z" fill="rgb(196, 153, 110)"/>
<path d="M194.922 57.4438C188.487 54.1982 179.319 54.3342 173.903 61.6572C173.494 62.2053 174.078 63.1537 174.482 62.6095C179.622 55.683 188.615 55.6713 194.705 58.742C195.211 58.9986 195.426 57.6964 194.922 57.4438Z" fill="rgb(196, 153, 110)"/>
<path d="M196.227 58.1707C193.293 62.3777 189.656 65.033 185.79 65.7901C181.924 66.5473 178.009 65.3712 174.555 62.4153C174.083 62.0266 173.671 63.1926 174.142 63.5813C181.655 69.8976 190.419 68.1835 196.806 59.1269C197.206 58.5594 196.624 57.611 196.227 58.1746V58.1707Z" fill="rgb(196, 153, 110)"/>
<path d="M178.243 65.793C181.036 64.2965 183.995 62.5008 186.36 59.5739C186.776 59.0569 186.36 57.887 185.946 58.4078C183.629 61.2841 180.759 63.0372 178.026 64.4986C177.527 64.7668 177.74 66.0534 178.243 65.8008V65.793Z" fill="rgb(196, 153, 110)"/>
<path d="M185.913 66.8269C188.922 64.3237 192.18 61.9294 194.832 58.4583C195.244 57.918 194.66 56.9696 194.251 57.5022C191.664 60.8916 188.435 63.2198 185.504 65.6647C185.031 66.0534 185.447 67.2195 185.917 66.8308L185.913 66.8269Z" fill="rgb(196, 153, 110)"/>
<path d="M177.901 59.3212C179.2 59.3211 180.495 59.5822 181.756 60.0986C182.272 60.2891 182.492 58.9908 181.976 58.8004C180.643 58.2558 179.274 57.9817 177.901 57.9841C177.373 58.0113 177.371 59.3601 177.901 59.3329V59.3212Z" fill="rgb(196, 153, 110)"/>
<path d="M183.556 57.5604C185.437 57.8714 187.31 58.2938 189.173 58.8276C189.688 58.9753 189.91 57.6615 189.39 57.5293C187.455 56.9748 185.51 56.5356 183.556 56.2117C183.031 56.1261 183.036 57.471 183.556 57.5604Z" fill="rgb(196, 153, 110)"/>
<path d="M197.18 44.0377C205.841 53.4058 214.962 61.5719 224.448 68.4516C224.92 68.8014 225.344 67.6392 224.861 67.2855C215.376 60.4059 206.255 52.2397 197.594 42.8717C197.152 42.3936 196.74 43.5596 197.18 44.0377Z" fill="rgb(196, 153, 110)"/>
<path d="M208.866 54.0117C201.989 51.5357 195.154 47.6915 191.482 37.0296C191.222 36.2717 190.513 36.9519 190.773 37.7099C194.556 48.6827 201.544 52.7562 208.646 55.3099C209.161 55.4965 209.379 54.1983 208.863 54.0117H208.866Z" fill="rgb(196, 153, 110)"/>
<path d="M191.289 37.9703C198.901 38.1763 206.216 43.9523 209.329 55.8774C209.537 56.6548 210.242 55.9862 210.038 55.1972C206.816 42.8561 199.163 36.8353 191.291 36.6215C190.761 36.6215 190.761 37.9547 191.291 37.9703H191.289Z" fill="rgb(196, 153, 110)"/>
<path d="M194.012 38.6583C195.912 40.353 197.613 42.5905 199.036 45.266C199.383 45.9229 199.963 44.9668 199.615 44.3137C198.146 41.5468 196.388 39.2317 194.426 37.4766C193.953 37.0607 193.549 38.2268 194.012 38.6427V38.6583Z" fill="rgb(196, 153, 110)"/>
<path d="M200.417 41.4374C202.071 44.547 203.681 47.847 204.807 51.5746C205.043 52.352 205.752 51.6717 205.516 50.8943C204.362 47.0696 202.707 43.6763 200.998 40.4812C200.648 39.8321 200.071 40.7883 200.419 41.4374H200.417Z" fill="rgb(196, 153, 110)"/>
<path d="M193.267 42.3741C194.856 43.2915 196.341 44.4459 198.022 44.8851C198.506 45.0134 198.717 43.7929 198.227 43.6646C196.549 43.2254 195.062 42.071 193.473 41.1536C193 40.8815 192.802 42.1059 193.267 42.3741Z" fill="rgb(196, 153, 110)"/>
<path d="M197.071 47.9286C198.764 48.8148 200.518 48.9936 202.253 49.5223C202.769 49.6816 202.991 48.3834 202.471 48.224C200.738 47.6915 198.981 47.5166 197.291 46.6265C196.788 46.3622 196.582 47.6643 197.071 47.9286Z" fill="rgb(196, 153, 110)"/>
<path d="M189.589 42.9882C189.65 41.4646 189.939 36.5398 188.783 35.6925C187.627 34.8451 187.05 38.2229 187.007 39.455L187.586 38.907C186.641 37.8652 184.485 35.6069 183.485 37.8108C182.634 39.6766 184.092 41.348 185.069 41.62V40.3957C184.203 40.6094 181.927 40.4851 181.839 42.6579C181.752 44.8307 183.865 44.6013 184.634 44.6596C184.544 44.302 184.454 43.9405 184.362 43.5791C183.378 44.9201 183.31 46.9918 184.764 47.396C186.511 47.878 188.402 46.1133 189.582 44.166C189.646 44.045 189.68 43.8884 189.677 43.7278C189.673 43.5672 189.633 43.4146 189.564 43.301C189.495 43.1873 189.402 43.1211 189.305 43.1158C189.207 43.1104 189.112 43.1662 189.038 43.272C188.347 44.4585 187.481 45.3325 186.525 45.8102C185.91 46.1056 183.501 46.3932 184.908 44.4769C185.184 44.0882 184.939 43.4236 184.634 43.3925C184.161 43.3497 182.705 43.0427 183.688 42.001C184.024 41.6511 184.87 41.7172 185.262 41.6123C185.655 41.5073 185.627 40.4889 185.262 40.3879C184.44 40.4371 184.291 40.0277 184.816 39.1596C184.887 38.2773 185.114 38.0518 185.492 38.4872C186.007 38.5221 186.776 39.5483 187.185 39.9914C187.243 40.0458 187.31 40.0743 187.377 40.0741C187.444 40.0739 187.51 40.045 187.569 39.9902C187.628 39.9353 187.677 39.8565 187.711 39.7614C187.746 39.6662 187.765 39.558 187.766 39.4472C187.686 38.4107 187.966 37.7409 188.608 37.4377C188.706 38.1847 188.774 38.9418 188.811 39.7038C188.862 40.7944 188.862 41.8898 188.811 42.9805C188.778 43.7928 189.549 43.789 189.582 42.9805L189.589 42.9882Z" fill="rgb(196, 153, 110)"/>
<path d="M188.123 40.8194C187.684 40.7146 187.237 40.8791 186.867 41.2815C186.497 41.6838 186.23 42.296 186.117 43.0012C186.004 43.7064 186.053 44.4554 186.254 45.1053C186.455 45.7553 186.795 46.2608 187.208 46.5254C189.336 47.9675 190.312 41.6045 188.215 41.2897C187.721 41.2159 187.724 42.483 188.215 42.5569C188.842 42.6501 188.615 44.3099 188.404 44.889C188.073 45.7675 187.43 45.5576 187.078 44.8307C186.433 43.4936 187.192 41.9194 188.123 42.1099C188.615 42.207 188.61 40.9438 188.123 40.8427V40.8194Z" fill="rgb(196, 153, 110)"/>
<path d="M163.688 6.89418C163.487 6.14788 163.113 4.92738 163.215 4.0878C163.035 3.34929 163.144 3.16659 163.543 3.54751C163.882 3.50346 164.04 3.76259 164.016 4.3249C164.035 4.43073 164.07 4.52684 164.118 4.60386C164.166 4.68088 164.225 4.73618 164.29 4.76436C164.354 4.79255 164.422 4.79267 164.487 4.7647C164.552 4.73673 164.611 4.68162 164.659 4.60476C165.191 3.71077 165.735 2.76624 166.402 2.14433C166.961 1.27625 167.404 1.42006 167.73 2.57578C167.488 3.1942 167.199 3.76084 166.872 4.26272C166.657 4.62421 166.796 5.40159 167.144 5.34329C168.392 5.13728 169.574 4.98569 170.704 6.12068V5.02845C169.606 5.94595 168.419 6.53805 167.196 6.77757C167.116 6.78738 167.039 6.83789 166.977 6.92213C166.915 7.00638 166.87 7.12024 166.849 7.24805C166.827 7.37587 166.831 7.51137 166.858 7.63593C166.886 7.76049 166.936 7.86799 167.002 7.94365C167.453 8.13023 167.507 8.5539 167.165 9.21468C167.13 10.3419 166.768 10.5673 166.075 9.88712C165.33 9.51118 164.658 8.82104 164.125 7.88534C164.053 7.76859 163.955 7.70348 163.854 7.70411C163.752 7.70474 163.655 7.77107 163.583 7.88871C163.511 8.00635 163.471 8.16581 163.47 8.33254C163.469 8.49926 163.508 8.6598 163.579 8.77934C164.525 10.3341 166.804 12.6041 168.182 11.0649C169.364 9.73164 168.182 7.6288 167.39 6.85141L167.196 8.01749C168.553 7.74628 169.872 7.08864 171.092 6.07402C171.149 6.01733 171.197 5.93725 171.23 5.84156C171.262 5.74588 171.28 5.63783 171.28 5.52791C171.28 5.41799 171.262 5.30996 171.23 5.21427C171.197 5.11858 171.149 5.03849 171.092 4.9818C169.856 3.74964 168.548 3.81572 167.144 4.04116L167.416 5.12562C167.974 4.19276 169.503 1.67012 168.461 0.426302C167.08 -1.21787 164.915 2.3309 164.113 3.6719L164.759 3.95176C164.567 2.65352 163.749 0.348567 162.754 1.79062C161.884 3.04999 162.673 6.17509 163.033 7.50443C163.234 8.25072 163.898 7.60548 163.699 6.86696L163.688 6.89418Z" fill="rgb(196, 153, 110)"/>
<path d="M164.681 5.35498C163.827 5.35498 162.874 5.81363 162.539 7.24014C162.203 8.66664 162.678 9.91824 163.527 10.3264C164.288 10.6956 165.293 10.4119 165.681 9.16029C165.763 8.90349 165.812 8.62119 165.825 8.33144C165.837 8.04169 165.812 7.75086 165.753 7.47757C165.693 7.20427 165.599 6.95453 165.477 6.74432C165.355 6.5341 165.208 6.36803 165.045 6.25674C164.572 5.94967 164.383 7.17795 164.839 7.47725C165.156 7.68714 165.075 8.49174 164.893 8.81435C164.588 9.34686 163.981 9.31188 163.6 9.04757C163.506 8.98671 163.422 8.8892 163.356 8.76342C163.289 8.63763 163.243 8.48732 163.219 8.32532C163.196 8.16332 163.197 7.99447 163.222 7.83324C163.247 7.672 163.296 7.52317 163.364 7.3995C163.657 6.73484 164.229 6.62211 164.688 6.62211C164.79 6.62211 164.888 6.55536 164.96 6.43655C165.032 6.31773 165.073 6.15659 165.073 5.98855C165.073 5.82052 165.032 5.65937 164.96 5.54055C164.888 5.42173 164.79 5.35498 164.688 5.35498H164.681Z" fill="rgb(196, 153, 110)"/>
</svg>
